<svg id="hand-wash" xmlns="http://www.w3.org/2000/svg" xmlns:xlink="http://www.w3.org/1999/xlink" width="138.31" height="142.58" viewBox="0 0 138.31 142.58">
  <defs>
    <linearGradient id="linear-gradient" x1="0.5" y1="-0.022" x2="0.5" y2="1.08" gradientUnits="objectBoundingBox">
      <stop offset="0" stop-color="#00efd1"/>
      <stop offset="1" stop-color="#00acea"/>
    </linearGradient>
    <linearGradient id="linear-gradient-2" x1="0.5" y1="-0.898" x2="0.5" y2="4.8" xlink:href="#linear-gradient"/>
    <linearGradient id="linear-gradient-3" x1="0.5" y1="-2.207" x2="0.5" y2="6.861" xlink:href="#linear-gradient"/>
    <linearGradient id="linear-gradient-4" x1="0.5" y1="-1.469" x2="0.5" y2="7.599" xlink:href="#linear-gradient"/>
    <linearGradient id="linear-gradient-5" x1="0.5" y1="-7.846" x2="0.5" y2="1.222" xlink:href="#linear-gradient"/>
    <linearGradient id="linear-gradient-6" x1="0.5" y1="-7.736" x2="0.5" y2="1.332" xlink:href="#linear-gradient"/>
  </defs>
  <path id="Path_1" data-name="Path 1" d="M128.34,36.193V29.828a6.439,6.439,0,0,0-6.317-6.431h-.962V18.4h1.983a2.236,2.236,0,0,0,2.263-2.139V2.16A2.256,2.256,0,0,0,123.044,0H104.669a2.063,2.063,0,0,0-1.494.626,2.182,2.182,0,0,0-.617,1.534v5.2A10.521,10.521,0,0,0,96.6,5.224L80.837,4.991h-.024A2.207,2.207,0,0,0,78.69,7.21a2.184,2.184,0,0,0,2.1,2.237l15.744.186a6.153,6.153,0,0,1,5.943,6.324,2.117,2.117,0,0,0,.108.7,2.122,2.122,0,0,0,2.083,1.747H106.5V23.4h-.812a6.312,6.312,0,0,0-6.165,6.431v6.366A13.724,13.724,0,0,0,89.212,49.432V65.643a1.963,1.963,0,0,0-.544-.089,6.3,6.3,0,0,0-4.753,1.471l-8.721,7.321a11.639,11.639,0,0,0-2.517-7.137,3.923,3.923,0,0,0-2.684-1.488,3.835,3.835,0,0,0-2.919.836L64.9,68.317h-.036a11.422,11.422,0,0,0,2.438-7.15,4.03,4.03,0,0,0-3.985-4.08H32.311A14.865,14.865,0,0,0,19.076,65.2H10.838a10.561,10.561,0,0,0-7.647,3.215A11.179,11.179,0,0,0,.039,76.264V92.491a11.193,11.193,0,0,0,3.152,7.856,10.573,10.573,0,0,0,7.648,3.221h11.14a15.793,15.793,0,0,0,7.686,4.847,11.52,11.52,0,0,0,.026,14.167l9.969,12.583a10.693,10.693,0,0,0,15.317,1.608l8.612-7.22a16.678,16.678,0,0,0,12.54-3.829l15.379-12.9a13.17,13.17,0,0,0,10.991,6.032h22.715a12.962,12.962,0,0,0,9.308-3.985,13.717,13.717,0,0,0,3.827-9.595V49.432A13.466,13.466,0,0,0,128.34,36.193ZM106.8,4.367H121.06v9.671H106.8ZM110.748,18.4h6.066V23.4h-6.066Zm-5.058,9.358h16.333a2.128,2.128,0,0,1,2.071,2.064v6.046H103.771V29.828A2,2,0,0,1,105.69,27.763ZM102.5,40.241h22.715a8.761,8.761,0,0,1,6.306,2.692,9.269,9.269,0,0,1,2.583,6.5V64.577l-.327-.106a13.092,13.092,0,0,0-9.762,1.025,9.07,9.07,0,0,1-6.8.684L115.9,65.8V54.394a2.2,2.2,0,0,0-2.047-2.3h-20.4V49.432A9.135,9.135,0,0,1,102.5,40.241Zm2.107,52.972a6.517,6.517,0,0,0-1.748-1.532l2.071-1.737a6.779,6.779,0,0,0,2.368-5.811,6.7,6.7,0,0,0-3.38-5.254,6.829,6.829,0,0,0-.761-8.808,6.369,6.369,0,0,0-8.592-.333l-.4.312a6.033,6.033,0,0,0-.7-1.439V56.463h18.2v46.481h-8.377l.393-.323A6.814,6.814,0,0,0,104.605,93.213ZM21.619,94.4a2.12,2.12,0,0,0-2.55-1.629,2.062,2.062,0,0,0-1.317.937,2.174,2.174,0,0,0-.268,1.624A17,17,0,0,0,18.9,99.2H10.838a6.382,6.382,0,0,1-4.647-1.94,6.757,6.757,0,0,1-1.906-4.769V76.264A6.745,6.745,0,0,1,6.193,71.5a6.371,6.371,0,0,1,4.646-1.934h6.58a14.329,14.329,0,0,0-.376,3.385,19.121,19.121,0,0,0,5.424,13.437l.895.9a2.086,2.086,0,0,0,3.009-.007,2.233,2.233,0,0,0-.007-3.1l-.893-.921A14.908,14.908,0,0,1,21.29,72.839,11.238,11.238,0,0,1,32.311,61.454h30.74a6.889,6.889,0,0,1-6.967,6.863h-12.6a2.212,2.212,0,0,0-2.123,2.248,6.106,6.106,0,0,1-5.983,6.188,2.188,2.188,0,0,0-1.5,3.721,2.044,2.044,0,0,0,1.5.6,10.145,10.145,0,0,0,10.009-8.395h14.3l-5.543,4.679H50.06a2.183,2.183,0,0,0-2.078,1.762,2.247,2.247,0,0,0,1.2,2.481l-6.135,5.156a16.043,16.043,0,0,0-5.431,14.649l-.746.718L33.687,104.8A13.486,13.486,0,0,1,21.621,94.4ZM73.446,122.34a12.491,12.491,0,0,1-9.9,2.807,2.079,2.079,0,0,0-1.916.411l-9.34,7.832a6.523,6.523,0,0,1-9.345-.979l-9.969-12.575a6.964,6.964,0,0,1,.95-9.61l5.672-4.756c.036-.032.071-.062.1-.094l1.666-1.593a2.226,2.226,0,0,0,.616-2.121,11.585,11.585,0,0,1,3.739-11.506L69.552,70.18a7.31,7.31,0,0,1-1.159,9.875l-8.075,6.771a2.212,2.212,0,0,0-.765,2.045,2.17,2.17,0,0,0,1.346,1.7,2.077,2.077,0,0,0,2.1-.359l8.073-6.769,15.54-13.03a2.215,2.215,0,0,1,3.178.331,2.369,2.369,0,0,1-.322,3.269L69.263,90.958A2.217,2.217,0,0,0,68.5,93a2.169,2.169,0,0,0,1.347,1.7,2.078,2.078,0,0,0,2.1-.36L92.154,77.4l5.094-4.272a2.218,2.218,0,0,1,3.179.333,2.37,2.37,0,0,1-.323,3.269l-3.4,2.847-5.095,4.272L74.8,97.942a2.218,2.218,0,0,0-.776,2.05,2.17,2.17,0,0,0,1.352,1.7,2.076,2.076,0,0,0,2.108-.369L99.113,83.189l.277-.233a2.21,2.21,0,0,1,2.24-.389,2.31,2.31,0,0,1,1.436,1.811,2.357,2.357,0,0,1-.821,2.179L96.3,91.542a2.16,2.16,0,0,0-.284.29,6.183,6.183,0,0,0-.564.422l-11.718,9.827a2.214,2.214,0,0,0-.765,2.046,2.174,2.174,0,0,0,1.346,1.7,2.08,2.08,0,0,0,2.1-.359l11.717-9.827a2.217,2.217,0,0,1,3.179.331,2.369,2.369,0,0,1-.323,3.269Zm51.768-7.855H102.5a8.954,8.954,0,0,1-7.678-4.451l3.251-2.723h15.784a2.021,2.021,0,0,0,1.47-.64,2.14,2.14,0,0,0,.577-1.529v-34.8l.152.033a13.2,13.2,0,0,0,9.907-1,8.913,8.913,0,0,1,6.672-.7l1.468.43v36.164a9.288,9.288,0,0,1-2.582,6.508A8.77,8.77,0,0,1,125.214,114.486Zm0,0" transform="translate(-0.039 0)" fill="url(#linear-gradient)"/>
  <path id="Path_2" data-name="Path 2" d="M232.176,79.7a4.51,4.51,0,0,0,4.057-6.478.906.906,0,0,0-.053-.095L233,68.092a.979.979,0,0,0-1.655,0l-3.177,5.035a.971.971,0,0,0-.053.1,4.509,4.509,0,0,0,4.057,6.478Zm-2.319-5.579,2.319-3.675,2.319,3.675a2.554,2.554,0,1,1-4.638,0Zm0,0" transform="translate(-152.483 -41.314)" fill="url(#linear-gradient-2)"/>
  <path id="Path_3" data-name="Path 3" d="M147.735,117.4a3.79,3.79,0,1,0-3.79-3.79A3.79,3.79,0,0,0,147.735,117.4Zm0-5.624a1.834,1.834,0,1,1-1.834,1.834A1.834,1.834,0,0,1,147.735,111.776Zm0,0" transform="translate(-97.117 -74.166)" fill="url(#linear-gradient-3)"/>
  <path id="Path_4" data-name="Path 4" d="M73.735,77.4a3.79,3.79,0,1,0-3.79-3.79A3.79,3.79,0,0,0,73.735,77.4Zm0-5.624A1.834,1.834,0,1,1,71.9,73.61,1.834,1.834,0,0,1,73.735,71.776Zm0,0" transform="translate(-47.197 -44.169)" fill="url(#linear-gradient-4)"/>
  <path id="Path_5" data-name="Path 5" d="M251.735,415.82a3.79,3.79,0,1,0,3.79,3.79A3.79,3.79,0,0,0,251.735,415.82Zm0,5.624a1.834,1.834,0,1,1,1.834-1.834A1.834,1.834,0,0,1,251.735,421.445Zm0,0" transform="translate(-167.275 -280.821)" fill="url(#linear-gradient-5)"/>
  <path id="Path_6" data-name="Path 6" d="M334.735,409.82a3.79,3.79,0,1,0,3.789,3.79A3.79,3.79,0,0,0,334.735,409.82Zm0,5.624a1.834,1.834,0,1,1,1.834-1.834A1.834,1.834,0,0,1,334.735,415.445Zm0,0" transform="translate(-223.266 -275.659)" fill="url(#linear-gradient-6)"/>
</svg>
