<svg xmlns="http://www.w3.org/2000/svg" xmlns:xlink="http://www.w3.org/1999/xlink" width="242" height="249.47" viewBox="0 0 242 249.47">
  <defs>
    <linearGradient id="linear-gradient" x1="0.5" y1="-0.022" x2="0.5" y2="1.08" gradientUnits="objectBoundingBox">
      <stop offset="0" stop-color="#00efd1"/>
      <stop offset="1" stop-color="#00acea"/>
    </linearGradient>
    <linearGradient id="linear-gradient-2" x1="0.5" y1="-0.898" x2="0.5" y2="4.8" xlink:href="#linear-gradient"/>
    <linearGradient id="linear-gradient-3" x1="0.5" y1="-2.207" x2="0.5" y2="6.861" xlink:href="#linear-gradient"/>
    <linearGradient id="linear-gradient-4" x1="0.5" y1="-1.469" x2="0.5" y2="7.599" xlink:href="#linear-gradient"/>
    <linearGradient id="linear-gradient-5" x1="0.5" y1="-7.846" x2="0.5" y2="1.222" xlink:href="#linear-gradient"/>
    <linearGradient id="linear-gradient-6" x1="0.5" y1="-7.736" x2="0.5" y2="1.332" xlink:href="#linear-gradient"/>
  </defs>
  <g id="hand-wash" transform="translate(-0.039 0)">
    <path id="Path_1" data-name="Path 1" d="M224.525,63.327V52.189a11.265,11.265,0,0,0-11.053-11.253h-1.683V32.2h3.47a3.912,3.912,0,0,0,3.959-3.742V3.78A3.948,3.948,0,0,0,215.259,0H183.11A3.609,3.609,0,0,0,180.5,1.1a3.817,3.817,0,0,0-1.08,2.684v9.1A18.408,18.408,0,0,0,168.988,9.14L141.41,8.733h-.042a3.862,3.862,0,0,0-3.715,3.883,3.821,3.821,0,0,0,3.676,3.915l27.547.326a10.766,10.766,0,0,1,10.4,11.066,3.7,3.7,0,0,0,.189,1.224,3.712,3.712,0,0,0,3.644,3.057h3.207v8.733h-1.42a11.044,11.044,0,0,0-10.786,11.253V63.327A24.013,24.013,0,0,0,156.065,86.49v28.365a3.435,3.435,0,0,0-.952-.156,11.021,11.021,0,0,0-8.317,2.573l-15.26,12.81a20.365,20.365,0,0,0-4.4-12.487,6.865,6.865,0,0,0-4.7-2.6,6.711,6.711,0,0,0-5.108,1.463l-3.806,3.079h-.062a19.985,19.985,0,0,0,4.266-12.511,7.051,7.051,0,0,0-6.972-7.138H56.5a26.009,26.009,0,0,0-23.156,14.191H18.935A18.478,18.478,0,0,0,5.555,119.7,19.56,19.56,0,0,0,.039,133.439V161.83a19.584,19.584,0,0,0,5.514,13.746,18.5,18.5,0,0,0,13.382,5.635H38.426a27.633,27.633,0,0,0,13.448,8.481,20.156,20.156,0,0,0,.046,24.788L69.362,236.5a18.71,18.71,0,0,0,26.8,2.814l15.069-12.633a29.182,29.182,0,0,0,21.941-6.7L160.08,197.4a23.043,23.043,0,0,0,19.232,10.554h39.744a22.679,22.679,0,0,0,16.286-6.972,24,24,0,0,0,6.7-16.788V86.49A23.561,23.561,0,0,0,224.525,63.327ZM186.845,7.641h24.943v16.92H186.845Zm6.9,24.562h10.614v8.733H193.744Zm-8.85,16.374h28.577a3.723,3.723,0,0,1,3.624,3.612V62.769H181.538V52.189A3.5,3.5,0,0,1,184.895,48.577ZM179.312,70.41h39.744a15.329,15.329,0,0,1,11.033,4.71,16.217,16.217,0,0,1,4.519,11.371v26.5l-.572-.185a22.906,22.906,0,0,0-17.08,1.793,15.87,15.87,0,0,1-11.9,1.2l-2.289-.659V95.172a3.841,3.841,0,0,0-3.582-4.021H163.495V86.49A15.983,15.983,0,0,1,179.312,70.41ZM183,163.094a11.4,11.4,0,0,0-3.058-2.68l3.624-3.038a11.861,11.861,0,0,0,4.144-10.168,11.714,11.714,0,0,0-5.914-9.194,11.948,11.948,0,0,0-1.331-15.411,11.145,11.145,0,0,0-15.034-.582l-.707.546a10.556,10.556,0,0,0-1.227-2.518V98.793h31.842v81.326H180.68l.688-.565A11.923,11.923,0,0,0,183,163.094ZM37.8,165.169a3.71,3.71,0,0,0-4.461-2.851,3.609,3.609,0,0,0-2.305,1.64,3.8,3.8,0,0,0-.469,2.842,29.753,29.753,0,0,0,2.481,6.769H18.935a11.167,11.167,0,0,1-8.131-3.394,11.823,11.823,0,0,1-3.336-8.345V133.439a11.8,11.8,0,0,1,3.338-8.339,11.148,11.148,0,0,1,8.128-3.384H30.448a25.072,25.072,0,0,0-.657,5.923,33.456,33.456,0,0,0,9.49,23.51l1.565,1.58a3.65,3.65,0,0,0,5.265-.013A3.906,3.906,0,0,0,46.1,147.3l-1.563-1.612a26.084,26.084,0,0,1-7.316-18.244c.006-10.965,8.622-19.867,19.283-19.92H110.29A12.054,12.054,0,0,1,98.1,119.533H76.058a3.871,3.871,0,0,0-3.715,3.934,10.684,10.684,0,0,1-10.469,10.827,3.829,3.829,0,0,0-2.616,6.511,3.577,3.577,0,0,0,2.616,1.057,17.751,17.751,0,0,0,17.513-14.688h25.026l-9.7,8.187H87.561a3.82,3.82,0,0,0-3.636,3.083,3.932,3.932,0,0,0,2.094,4.341l-10.734,9.021a28.07,28.07,0,0,0-9.5,25.632l-1.306,1.256-5.562,4.667c-9.88-.542-18.84-8.179-21.112-18.2Zm90.681,48.889a21.855,21.855,0,0,1-17.314,4.912,3.638,3.638,0,0,0-3.352.719l-16.342,13.7a11.414,11.414,0,0,1-16.35-1.712l-17.443-22a12.185,12.185,0,0,1,1.663-16.814l9.924-8.322c.062-.055.124-.109.182-.164l2.915-2.787a3.9,3.9,0,0,0,1.078-3.712,20.27,20.27,0,0,1,6.542-20.131l41.683-34.953a12.791,12.791,0,0,1-2.027,17.278L105.509,151.92a3.871,3.871,0,0,0-1.339,3.578,3.8,3.8,0,0,0,2.355,2.972,3.634,3.634,0,0,0,3.68-.629L124.331,146l27.19-22.8a3.876,3.876,0,0,1,5.56.58,4.145,4.145,0,0,1-.564,5.72l-35.358,29.649a3.88,3.88,0,0,0-1.339,3.58,3.8,3.8,0,0,0,2.357,2.972,3.636,3.636,0,0,0,3.678-.629l35.358-29.653,8.912-7.475a3.88,3.88,0,0,1,5.562.582,4.147,4.147,0,0,1-.566,5.72l-5.941,4.981-8.914,7.475-29.417,24.668a3.881,3.881,0,0,0-1.358,3.586,3.8,3.8,0,0,0,2.365,2.981,3.633,3.633,0,0,0,3.688-.646l37.844-31.734.485-.407a3.867,3.867,0,0,1,3.92-.68,4.042,4.042,0,0,1,2.513,3.168,4.124,4.124,0,0,1-1.437,3.812l-10.4,8.722a3.78,3.78,0,0,0-.5.508,10.816,10.816,0,0,0-.987.738l-20.5,17.193a3.875,3.875,0,0,0-1.339,3.58,3.8,3.8,0,0,0,2.355,2.972,3.639,3.639,0,0,0,3.68-.629l20.5-17.193a3.878,3.878,0,0,1,5.562.58,4.145,4.145,0,0,1-.566,5.72Zm90.578-13.743H179.312a15.667,15.667,0,0,1-13.433-7.789l5.688-4.765h27.617a3.537,3.537,0,0,0,2.573-1.119,3.744,3.744,0,0,0,1.01-2.676V123.081l.265.058a23.09,23.09,0,0,0,17.335-1.742,15.594,15.594,0,0,1,11.673-1.23l2.568.753V184.2a16.251,16.251,0,0,1-4.517,11.388A15.344,15.344,0,0,1,219.056,200.314Zm0,0" transform="translate(0 0)" fill="url(#linear-gradient)"/>
    <path id="Path_2" data-name="Path 2" d="M235.557,88.745a7.891,7.891,0,0,0,7.1-11.335,1.576,1.576,0,0,0-.093-.166L237,68.434a1.713,1.713,0,0,0-2.9,0l-5.558,8.81a1.69,1.69,0,0,0-.093.167,7.89,7.89,0,0,0,7.1,11.334ZM231.5,78.983l4.057-6.43,4.058,6.43a4.468,4.468,0,1,1-8.115,0Zm0,0" transform="translate(-96.08 -21.581)" fill="url(#linear-gradient-2)"/>
    <path id="Path_3" data-name="Path 3" d="M150.577,123.083a6.631,6.631,0,1,0-6.631-6.631A6.631,6.631,0,0,0,150.577,123.083Zm0-9.841a3.209,3.209,0,1,1-3.209,3.209A3.209,3.209,0,0,1,150.577,113.243Zm0,0" transform="translate(-61.972 -47.437)" fill="url(#linear-gradient-3)"/>
    <path id="Path_4" data-name="Path 4" d="M76.577,83.083a6.631,6.631,0,1,0-6.631-6.631A6.631,6.631,0,0,0,76.577,83.083Zm0-9.841a3.209,3.209,0,1,1-3.209,3.209A3.209,3.209,0,0,1,76.577,73.243Zm0,0" transform="translate(-30.105 -24.94)" fill="url(#linear-gradient-4)"/>
    <path id="Path_5" data-name="Path 5" d="M254.577,415.82a6.631,6.631,0,1,0,6.631,6.631A6.632,6.632,0,0,0,254.577,415.82Zm0,9.841a3.209,3.209,0,1,1,3.208-3.209A3.209,3.209,0,0,1,254.577,425.661Zm0,0" transform="translate(-106.759 -179.614)" fill="url(#linear-gradient-5)"/>
    <path id="Path_6" data-name="Path 6" d="M337.577,409.82a6.631,6.631,0,1,0,6.63,6.631A6.632,6.632,0,0,0,337.577,409.82Zm0,9.841a3.209,3.209,0,1,1,3.208-3.209A3.21,3.21,0,0,1,337.577,419.661Zm0,0" transform="translate(-142.502 -175.08)" fill="url(#linear-gradient-6)"/>
  </g>
</svg>
