<svg xmlns="http://www.w3.org/2000/svg" width="100" height="94.142" viewBox="0 0 100 94.142">
  <g id="Page-1" transform="translate(0)">
    <g id="_058---Washing-Hands" data-name="058---Washing-Hands" transform="translate(0)">
      <path id="Shape" d="M97.961,69.068,72.078,41.43a2.01,2.01,0,0,1-.5-1.6,1.861,1.861,0,0,1,.884-1.377l15.964-9.47a5.527,5.527,0,0,0,1.149-.906,5.627,5.627,0,0,0,.792-6.4,4.9,4.9,0,0,0-5.548-2.565L63.539,24.659a19.734,19.734,0,0,1-2.793,8.791,11.362,11.362,0,0,1,6.435,10.395,7.005,7.005,0,0,1,6.144,3.8,7.986,7.986,0,0,1-.045,7.577,7.006,7.006,0,0,1,5.41,3.943L92.975,74.388l.053.075a3.429,3.429,0,0,0,4.933-.075,3.938,3.938,0,0,0,0-5.32ZM94.213,81.047l-3.677-3.905a.143.143,0,0,0-.071-.075v-.019L79.185,65.012a7.71,7.71,0,0,1-1.7,3.037,6.779,6.779,0,0,1-3.571,2.019L85.444,82.387l3.766,4a3.432,3.432,0,0,0,5,0,3.954,3.954,0,0,0,0-5.339ZM82.951,85.066,74.094,75.6a7.815,7.815,0,0,1-1.909,3.773,6.905,6.905,0,0,1-2.864,1.811l3.624,3.886c.018.019.035.038.053.038l4.968,5.3a3.474,3.474,0,0,0,4.986,0,3.89,3.89,0,0,0,0-5.339Zm-12.464,2.7-.035-.019-3.377-3.6a6.807,6.807,0,0,1,.106,1.207,7.811,7.811,0,0,1-2.068,5.339,6.949,6.949,0,0,1-1.043.906l1.4,1.472a3.443,3.443,0,0,0,4.986.019,3.914,3.914,0,0,0,.035-5.32Zm2-28.826H40.662a1.891,1.891,0,0,1,0-3.773H67.181a3.781,3.781,0,0,0,0-7.546H30.568a1.757,1.757,0,0,1-1.414-.755,1.929,1.929,0,0,1-.283-1.641L33.891,26.47A6.129,6.129,0,0,0,34.086,25a5.357,5.357,0,0,0-2.758-4.773,4.466,4.466,0,0,0-1.008-.4c-.018-.019-.053,0-.071-.019h-.018A4.8,4.8,0,0,0,24.8,22.225l-.053.057-21,33.807a.419.419,0,0,1-.053.094l-1.68,2.924a22.02,22.02,0,0,0,.909,20.17,19.257,19.257,0,0,0,16.523,9.844H60.109a3.781,3.781,0,0,0,0-7.546H37.126a1.891,1.891,0,0,1,0-3.773H67.181a3.781,3.781,0,0,0,0-7.546H38.894a1.891,1.891,0,0,1,0-3.773H72.485a3.781,3.781,0,0,0,0-7.546ZM32.919,43.845H63.645a7.4,7.4,0,0,0-6.135-7.471,1.811,1.811,0,0,1-1.432-1.226,1.949,1.949,0,0,1,.354-1.905A15.863,15.863,0,0,0,58.927,17,14.128,14.128,0,0,0,46.014,8a14.122,14.122,0,0,0-12.936,8.963A9.091,9.091,0,0,1,37.621,25a9.421,9.421,0,0,1-.336,2.509ZM38.47,15.094a10.123,10.123,0,0,1,11.739-2.377,1.943,1.943,0,0,1,.919,2.49,1.733,1.733,0,0,1-2.334.981,6.737,6.737,0,0,0-7.832,1.585,1.691,1.691,0,0,1-2.5-.009A1.978,1.978,0,0,1,38.47,15.094Z" transform="translate(0 0)"/>
      <circle id="Oval" cx="2.5" cy="2.5" r="2.5" transform="translate(69.423 4)"/>
      <circle id="Oval-2" data-name="Oval" cx="4" cy="4" r="4" transform="translate(92)"/>
      <circle id="Oval-3" data-name="Oval" cx="2" cy="2" r="2" transform="translate(94 45.379)"/>
    </g>
  </g>
</svg>
