<svg xmlns="http://www.w3.org/2000/svg" width="80" height="75.142" viewBox="0 0 80 75.142">
  <g id="Page-1" transform="translate(0 0.299)">
    <g id="_058---Washing-Hands" data-name="058---Washing-Hands" transform="translate(0)">
      <path id="Shape" d="M77.879,56.549,57.3,34.577a1.6,1.6,0,0,1-.394-1.275,1.48,1.48,0,0,1,.7-1.095L70.3,24.678a4.394,4.394,0,0,0,.914-.72,4.474,4.474,0,0,0,.629-5.085,3.9,3.9,0,0,0-4.41-2.039L50.514,21.244a15.689,15.689,0,0,1-2.221,6.989A9.033,9.033,0,0,1,53.409,36.5a5.569,5.569,0,0,1,4.885,3.02,6.349,6.349,0,0,1-.036,6.024,5.57,5.57,0,0,1,4.3,3.135l11.356,12.1.042.06a2.726,2.726,0,0,0,3.921-.06,3.131,3.131,0,0,0,0-4.229ZM74.9,66.073l-2.923-3.1a.114.114,0,0,0-.056-.06v-.015l-8.967-9.569A6.13,6.13,0,0,1,61.6,55.739a5.389,5.389,0,0,1-2.839,1.6l9.164,9.794,2.994,3.18a2.729,2.729,0,0,0,3.978,0,3.144,3.144,0,0,0,0-4.244Zm-8.953,3.195L58.9,61.738a6.213,6.213,0,0,1-1.518,3,5.49,5.49,0,0,1-2.277,1.44l2.881,3.09c.014.015.028.03.042.03l3.949,4.214a2.762,2.762,0,0,0,3.964,0,3.093,3.093,0,0,0,0-4.244Zm-9.909,2.145-.028-.015-2.685-2.865a5.411,5.411,0,0,1,.084.96,6.21,6.21,0,0,1-1.644,4.244,5.524,5.524,0,0,1-.829.72l1.11,1.17a2.737,2.737,0,0,0,3.964.015,3.111,3.111,0,0,0,.028-4.229Zm1.588-22.917h-25.3a1.5,1.5,0,0,1,0-3H53.409a3.006,3.006,0,0,0,0-6H24.3a1.4,1.4,0,0,1-1.124-.6,1.533,1.533,0,0,1-.225-1.3l3.992-14.908a4.873,4.873,0,0,0,.155-1.17,4.259,4.259,0,0,0-2.193-3.794,3.55,3.55,0,0,0-.8-.315c-.014-.015-.042,0-.056-.015h-.014a3.819,3.819,0,0,0-4.315,1.92l-.042.045L2.98,46.23a.333.333,0,0,1-.042.075L1.6,48.63a17.506,17.506,0,0,0,.722,16.036,15.31,15.31,0,0,0,13.136,7.826H47.787a3.006,3.006,0,0,0,0-6H29.516a1.5,1.5,0,0,1,0-3H53.409a3.006,3.006,0,0,0,0-6H30.921a1.5,1.5,0,0,1,0-3h26.7a3.006,3.006,0,0,0,0-6Zm-31.455-12H50.6a5.883,5.883,0,0,0-4.877-5.939,1.439,1.439,0,0,1-1.138-.975,1.549,1.549,0,0,1,.281-1.515,12.611,12.611,0,0,0,1.983-12.912A11.232,11.232,0,0,0,36.581,8,11.227,11.227,0,0,0,26.3,15.125a7.227,7.227,0,0,1,3.612,6.389,7.49,7.49,0,0,1-.267,1.995ZM30.584,13.64a8.048,8.048,0,0,1,9.332-1.89,1.545,1.545,0,0,1,.731,1.98,1.378,1.378,0,0,1-1.855.78,5.356,5.356,0,0,0-6.226,1.26,1.345,1.345,0,0,1-1.989-.007A1.573,1.573,0,0,1,30.584,13.64Z" transform="translate(0 -1.64)"/>
      <circle id="Oval" cx="1.988" cy="1.988" r="1.988" transform="translate(55.191 3.18)"/>
      <circle id="Oval-2" data-name="Oval" cx="3.5" cy="3.5" r="3.5" transform="translate(73 -0.299)"/>
      <circle id="Oval-3" data-name="Oval" cx="1.59" cy="1.59" r="1.59" transform="translate(74.73 36.076)"/>
    </g>
  </g>
</svg>
